<?xml version="1.0" encoding="UTF-8" standalone="no"?>
<svg width="1440px" height="1024px" viewBox="0 0 1440 1024" version="1.1" xmlns="http://www.w3.org/2000/svg" xmlns:xlink="http://www.w3.org/1999/xlink">
    <!-- Generator: Sketch 42 (36781) - http://www.bohemiancoding.com/sketch -->
    <title>Group</title>
    <desc>Created with Sketch.</desc>
    <defs></defs>
    <g id="importnat" stroke="none" stroke-width="1" fill="none" fill-rule="evenodd">
        <g id="Desktop-HD-Copy">
            <g id="Group" transform="translate(-465.000000, -528.000000)">
                <rect id="Rectangle-20" fill="#1A6AF0" transform="translate(1287.743645, 1141.214074) rotate(-31.000000) translate(-1287.743645, -1141.214074) " x="126.01148" y="574.372833" width="2323.46433" height="1133.68248"></rect>
                <rect id="Rectangle-20" fill="#898989" transform="translate(1772.178326, 1770.981073) rotate(-31.000000) translate(-1772.178326, -1770.981073) " x="875.90965" y="1357.56285" width="1792.53735" height="826.83644"></rect>
                <rect id="Rectangle-20" fill="#2976F8" transform="translate(1037.277719, 805.280569) rotate(-31.000000) translate(-1037.277719, -805.280569) " x="85.7934526" y="532.15612" width="1902.96853" height="546.248898"></rect>
                <rect id="Rectangle-20" fill="#A4A4A4" transform="translate(1750.981197, 1661.937636) rotate(-31.000000) translate(-1750.981197, -1661.937636) " x="1314.54043" y="1409.76514" width="872.881545" height="504.344999"></rect>
                <rect id="Rectangle-20" fill="#D1D0D0" transform="translate(1834.981197, 1752.937636) rotate(-31.000000) translate(-1834.981197, -1752.937636) " x="1398.54043" y="1500.76514" width="872.881545" height="504.344999"></rect>
                <rect id="Rectangle-20" fill="#E5E5E5" transform="translate(1907.370764, 1806.769362) rotate(-31.000000) translate(-1907.370764, -1806.769362) " x="1427.25666" y="1620.7003" width="960.228209" height="372.13813"></rect>
                <rect id="Rectangle-20" fill="#BBBBBB" transform="translate(740.919874, 660.493592) rotate(-31.000000) translate(-740.919874, -660.493592) " x="116.985108" y="636.993592" width="1247.86953" height="47"></rect>
                <rect id="Rectangle-20" fill="#E5E5E5" transform="translate(830.177052, 431.792702) rotate(-31.000000) translate(-830.177052, -431.792702) " x="206.242287" y="302.946745" width="1247.86953" height="257.691914"></rect>
            </g>
        </g>
    </g>
</svg>