<?xml version="1.0" encoding="UTF-8" standalone="no"?>
<svg width="18px" height="16px" viewBox="0 0 18 16" version="1.1" xmlns="http://www.w3.org/2000/svg" xmlns:xlink="http://www.w3.org/1999/xlink">
    <!-- Generator: Sketch 42 (36781) - http://www.bohemiancoding.com/sketch -->
    <title>bil</title>
    <desc>Created with Sketch.</desc>
    <defs></defs>
    <g id="importnat" stroke="none" stroke-width="1" fill="none" fill-rule="evenodd">
        <g id="Web" transform="translate(-357.000000, -4942.000000)" fill-rule="nonzero" fill="#0584FF">
            <g id="bil" transform="translate(357.000000, 4942.000000)">
                <g id="Capa_1">
                    <g id="Group">
                        <path d="M16.5592593,14.2715185 L16.5592593,13.2048519 L13.85,13.2048519 L13.85,14.2715185 C13.8574074,16.1585556 16.5592593,16.1807963 16.5592593,14.2715185 Z" id="Shape"></path>
                        <path d="M4.13703704,14.2715185 L4.13703704,13.2048519 L1.43888889,13.2048519 L1.43888889,14.2715185 C1.43518519,16.1807963 4.13703704,16.1585556 4.13703704,14.2715185 Z" id="Shape"></path>
                        <path d="M18,10.9826296 L18,7.24188889 C17.9962963,5.93818519 16.9574074,5.2492963 16.3666667,5.17337037 L14.8907407,1.36411111 C14.6148333,0.634481481 14.0111111,0.0141111111 12.8703704,0.00855555556 L10.7907407,0.00855555556 L7.23518519,0.00855555556 L5.11666667,0.00855555556 C3.98148148,0.0141111111 3.37777778,0.634481481 3.0962963,1.36411111 L1.62037037,5.17337037 C1.03518519,5.2492963 -0.00185185185,5.93818519 1.97372992e-14,7.24188889 L1.97372992e-14,10.9826296 C1.97372992e-14,11.5955926 0.498148148,12.0937407 1.11111111,12.0937407 L16.8888889,12.0937407 C17.5018519,12.0937407 18,11.597463 18,10.9826296 Z M3.01851852,9.35114815 L3.01481481,9.35114815 L3.01111111,9.35114815 C2.32222222,9.35114815 1.76666667,8.77707407 1.76851852,8.06968519 C1.76481481,7.36040741 2.31851852,6.78633333 3.0037037,6.78633333 L3.01481481,6.78633333 L3.02592593,6.78633333 C3.70925926,6.78633333 4.26296296,7.36040741 4.26111111,8.06968519 C4.26296296,8.77707407 3.70555556,9.35114815 3.01851852,9.35114815 Z M9,5.13818519 L8.98703704,5.13818519 L4.36851852,5.13818519 C3.96111111,5.13818519 3.68518519,4.72337037 3.84444444,4.34744444 L4.62222222,2.50855556 C4.73888889,2.21781481 4.96481481,1.77707407 5.45740741,1.76966667 L12.5259259,1.76966667 C13.0110926,1.77707407 13.1333333,2.0492963 13.3611111,2.50855556 L14.1388889,4.34744444 C14.2981481,4.72337037 14.0222222,5.13818519 13.6148148,5.13818519 L9,5.13818519 L9,5.13818519 Z M14.8944444,9.44374074 L14.8907407,9.44374074 L14.8870556,9.44374074 C14.194463,9.44374074 13.6370556,8.86966667 13.6333519,8.16227778 C13.6370556,7.453 14.1907593,6.87892593 14.8814815,6.87892593 L14.8926111,6.87892593 L14.9037222,6.87892593 C15.5815185,6.87892593 16.1352037,7.453 16.1389074,8.16227778 C16.1333333,8.86966667 15.5759259,9.44374074 14.8944444,9.44374074 Z" id="Shape"></path>
                    </g>
                </g>
            </g>
        </g>
    </g>
</svg>