<?xml version="1.0" encoding="UTF-8" standalone="no"?>
<svg width="18px" height="19px" viewBox="0 0 18 19" version="1.1" xmlns="http://www.w3.org/2000/svg" xmlns:xlink="http://www.w3.org/1999/xlink">
    <!-- Generator: Sketch 42 (36781) - http://www.bohemiancoding.com/sketch -->
    <title>calendar</title>
    <desc>Created with Sketch.</desc>
    <defs></defs>
    <g id="importnat" stroke="none" stroke-width="1" fill="none" fill-rule="evenodd">
        <g id="Web" transform="translate(-830.000000, -4821.000000)" fill-rule="nonzero" fill="#0584FF">
            <g id="calendar" transform="translate(830.000000, 4821.000000)">
                <g id="Capa_1">
                    <g id="Group">
                        <path d="M6.50914644,10.1414184 C6.50914644,9.91114644 6.3223682,9.72459414 6.09190795,9.72459414 L4.63590377,9.72459414 C4.40570711,9.72459414 4.21889121,9.91114644 4.21889121,10.1414184 L4.21889121,11.5972343 C4.21889121,11.8278075 4.40570711,12.0144351 4.63590377,12.0144351 L6.09190795,12.0144351 C6.3223682,12.0144351 6.50914644,11.8278075 6.50914644,11.5972343 L6.50914644,10.1414184 L6.50914644,10.1414184 Z" id="Shape"></path>
                        <path d="M10.1478954,10.1414184 C10.1478954,9.91114644 9.9610795,9.72459414 9.73107113,9.72459414 L8.27487866,9.72459414 C8.04468201,9.72459414 7.85786611,9.91114644 7.85786611,10.1414184 L7.85786611,11.5972343 C7.85786611,11.8278075 8.04468201,12.0144351 8.27487866,12.0144351 L9.73107113,12.0144351 C9.9610795,12.0144351 10.1478954,11.8278075 10.1478954,11.5972343 L10.1478954,10.1414184 Z" id="Shape"></path>
                        <path d="M13.7868326,10.1414184 C13.7868326,9.91114644 13.6000167,9.72459414 13.3698201,9.72459414 L11.9138159,9.72459414 C11.6833556,9.72459414 11.4965774,9.91114644 11.4965774,10.1414184 L11.4965774,11.5972343 C11.4965774,11.8278075 11.6833556,12.0144351 11.9138159,12.0144351 L13.3698201,12.0144351 C13.6000167,12.0144351 13.7868326,11.8278075 13.7868326,11.5972343 L13.7868326,10.1414184 Z" id="Shape"></path>
                        <path d="M6.50914644,13.7805439 C6.50914644,13.5498954 6.3223682,13.3634937 6.09190795,13.3634937 L4.63590377,13.3634937 C4.40570711,13.3634937 4.21889121,13.5498954 4.21889121,13.7805439 L4.21889121,15.2360962 C4.21889121,15.4665188 4.40570711,15.6531088 4.63590377,15.6531088 L6.09190795,15.6531088 C6.3223682,15.6531088 6.50914644,15.4664812 6.50914644,15.2360962 L6.50914644,13.7805439 L6.50914644,13.7805439 Z" id="Shape"></path>
                        <path d="M10.1478954,13.7805439 C10.1478954,13.5498954 9.9610795,13.3634937 9.73107113,13.3634937 L8.27487866,13.3634937 C8.04468201,13.3634937 7.85786611,13.5498954 7.85786611,13.7805439 L7.85786611,15.2360962 C7.85786611,15.4665188 8.04468201,15.6531088 8.27487866,15.6531088 L9.73107113,15.6531088 C9.9610795,15.6531088 10.1478954,15.4664812 10.1478954,15.2360962 L10.1478954,13.7805439 Z" id="Shape"></path>
                        <path d="M13.7868326,13.7805439 C13.7868326,13.5498954 13.6000167,13.3634937 13.3700084,13.3634937 L11.9138159,13.3634937 C11.6833556,13.3634937 11.4965774,13.5498954 11.4965774,13.7805439 L11.4965774,15.2360962 C11.4965774,15.4665188 11.6833556,15.6531088 11.9138159,15.6531088 L13.3700084,15.6531088 C13.6000167,15.6531088 13.7868326,15.4664812 13.7868326,15.2360962 L13.7868326,13.7805439 L13.7868326,13.7805439 Z" id="Shape"></path>
                        <path d="M16.390318,2.04680335 L16.390318,4.27044351 C16.390318,5.27550628 15.5749707,6.08543096 14.5700586,6.08543096 L13.4217866,6.08543096 C12.4167992,6.08543096 11.5906444,5.27550628 11.5906444,4.27044351 L11.5906444,2.03882008 L6.4150795,2.03882008 L6.4150795,4.27044351 C6.4150795,5.27550628 5.58896234,6.08543096 4.58412552,6.08543096 L3.43562762,6.08543096 C2.43075314,6.08543096 1.61544351,5.27550628 1.61544351,4.27044351 L1.61544351,2.04680335 C0.737171548,2.07327615 0.0154769874,2.80001674 0.0154769874,3.69327615 L0.0154769874,16.7248619 C0.0154769874,17.6349163 0.753100418,18.3823305 1.66315481,18.3823305 L16.342569,18.3823305 C17.2512678,18.3823305 17.9902469,17.6333724 17.9902469,16.7248619 L17.9902469,3.69327615 C17.9902469,2.80001674 17.26859,2.07327615 16.390318,2.04680335 Z M15.8569833,15.9133556 C15.8569833,16.3066444 15.5381046,16.6257113 15.1446653,16.6257113 L2.82969038,16.6257113 C2.43625105,16.6257113 2.11737238,16.3066444 2.11737238,15.9133556 L2.11737238,9.18207113 C2.11737238,8.7886318 2.43621339,8.46956485 2.82969038,8.46956485 L15.1446276,8.46956485 C15.5380669,8.46956485 15.8569456,8.7886318 15.8569456,9.18207113 L15.8569833,15.9133556 L15.8569833,15.9133556 Z" id="Shape"></path>
                        <path d="M3.43159833,4.89332636 L4.56740586,4.89332636 C4.91215481,4.89332636 5.19168201,4.61421339 5.19168201,4.26946444 L5.19168201,0.624087866 C5.19168201,0.279301255 4.91215481,0 4.56740586,0 L3.43159833,0 C3.08681172,0 2.80732218,0.279301255 2.80732218,0.624087866 L2.80732218,4.26946444 C2.80732218,4.61421339 3.08681172,4.89332636 3.43159833,4.89332636 Z" id="Shape"></path>
                        <path d="M13.4071757,4.89332636 L14.5429833,4.89332636 C14.8875063,4.89332636 15.1670335,4.61421339 15.1670335,4.26946444 L15.1670335,0.624087866 C15.1670711,0.279301255 14.8875439,0 14.5429833,0 L13.4071757,0 C13.0624644,0 12.7829372,0.279301255 12.7829372,0.624087866 L12.7829372,4.26946444 C12.7829372,4.61421339 13.0624644,4.89332636 13.4071757,4.89332636 Z" id="Shape"></path>
                    </g>
                </g>
            </g>
        </g>
    </g>
</svg>