<?xml version="1.0" encoding="UTF-8" standalone="no"?>
<svg width="12px" height="24px" viewBox="0 0 12 24" version="1.1" xmlns="http://www.w3.org/2000/svg" xmlns:xlink="http://www.w3.org/1999/xlink">
    <!-- Generator: Sketch 42 (36781) - http://www.bohemiancoding.com/sketch -->
    <title>dollar</title>
    <desc>Created with Sketch.</desc>
    <defs></defs>
    <g id="importnat" stroke="none" stroke-width="1" fill="none" fill-rule="evenodd">
        <g id="Web" transform="translate(-359.000000, -4701.000000)" fill-rule="nonzero" fill="#0584FF">
            <g id="dollar" transform="translate(359.000000, 4701.000000)">
                <g id="Capa_1">
                    <path d="M9.21095238,10.4735238 C8.30619048,9.97352381 7.34428571,9.59257143 6.39190476,9.19733333 C5.83952381,8.9687619 5.31095238,8.70209524 4.84428571,8.33066667 C3.9252381,7.59733333 4.10142857,6.40685714 5.17761905,5.93542857 C5.48238095,5.80209524 5.80142857,5.7592381 6.1252381,5.74019048 C7.37285714,5.67352381 8.55857143,5.90209524 9.68714286,6.44495238 C10.2490476,6.71638095 10.4347619,6.63066667 10.6252381,6.04495238 C10.8252381,5.42590476 10.9919048,4.79733333 11.177619,4.17352381 C11.3014286,3.75447619 11.1490476,3.47828571 10.7538095,3.30209524 C10.03,2.98304762 9.28714286,2.75447619 8.50619048,2.63066667 C7.48714286,2.47352381 7.48714286,2.4687619 7.48238095,1.44495238 C7.47761905,0.00209523809 7.47761905,0.00209523809 6.03,0.00209523809 C5.82047619,0.00209523809 5.61095238,-0.00266666667 5.40142857,0.00209523809 C4.7252381,0.0211428571 4.61095238,0.140190476 4.59190476,0.821142857 C4.58238095,1.12590476 4.59190476,1.43066667 4.58714286,1.74019048 C4.58238095,2.64495238 4.57761905,2.63066667 3.71095238,2.94495238 C1.61571429,3.70685714 0.32047619,5.13542857 0.182380952,7.42114286 C0.0585714286,9.44495238 1.11571429,10.811619 2.77761905,11.8068571 C3.80142857,12.4211429 4.9347619,12.7830476 6.02047619,13.264 C6.44428571,13.4497143 6.84904762,13.664 7.20142857,13.9592381 C8.24428571,14.8211429 8.05380952,16.2544762 6.81571429,16.7973333 C6.15380952,17.0878095 5.45380952,17.1592381 4.7347619,17.0687619 C3.6252381,16.9306667 2.56333333,16.6401905 1.56333333,16.1211429 C0.977619048,15.816381 0.806190476,15.8973333 0.606190476,16.5306667 C0.434761905,17.0782857 0.282380952,17.6306667 0.13,18.1830476 C-0.0747619048,18.9259048 0.00142857143,19.1020952 0.710952381,19.4497143 C1.61571429,19.8878095 2.58238095,20.111619 3.56809524,20.2687619 C4.33952381,20.3925714 4.36333333,20.4259048 4.37285714,21.2259048 C4.37761905,21.5878095 4.37761905,21.9544762 4.38238095,22.316381 C4.38714286,22.7735238 4.60619048,23.0401905 5.07761905,23.0497143 C5.61095238,23.0592381 6.14904762,23.0592381 6.68238095,23.0449524 C7.12047619,23.0354286 7.34428571,22.7973333 7.34428571,22.3544762 C7.34428571,21.8592381 7.36809524,21.3592381 7.34904762,20.864 C7.3252381,20.3592381 7.54428571,20.1020952 8.03,19.9687619 C9.14904762,19.664 10.1014286,19.064 10.8347619,18.1687619 C12.8728571,15.6925714 12.0966667,12.0687619 9.21095238,10.4735238 Z" id="Shape"></path>
                </g>
            </g>
        </g>
    </g>
</svg>