<?xml version="1.0" encoding="UTF-8" standalone="no"?>
<svg width="150px" height="150px" viewBox="0 0 150 150" version="1.1" xmlns="http://www.w3.org/2000/svg" xmlns:xlink="http://www.w3.org/1999/xlink">
    <!-- Generator: Sketch 42 (36781) - http://www.bohemiancoding.com/sketch -->
    <title>elev</title>
    <desc>Created with Sketch.</desc>
    <defs>
        <linearGradient x1="50%" y1="0%" x2="50%" y2="98.3438297%" id="linearGradient-1">
            <stop stop-color="#0584FF" offset="0%"></stop>
            <stop stop-color="#021380" offset="100%"></stop>
        </linearGradient>
    </defs>
    <g id="importnat" stroke="none" stroke-width="1" fill="none" fill-rule="evenodd">
        <g id="Web" transform="translate(-339.000000, -2763.000000)">
            <g id="Group-6" transform="translate(339.000000, 2762.000000)">
                <g id="elev" transform="translate(0.000000, 1.000000)">
                    <g id="Group">
                        <circle id="Oval" fill="url(#linearGradient-1)" cx="75" cy="75" r="75"></circle>
                        <circle id="Oval-2" fill="#FFFFFF" cx="75" cy="75" r="70"></circle>
                    </g>
                    <g transform="translate(20.000000, 0.000000)">
                        <ellipse id="Oval-3" fill="#0584FF" cx="15" cy="15" rx="15" ry="15"></ellipse>
                        <path d="M23.8404151,6.15700965 C18.9661634,1.28099678 11.0350209,1.28099678 6.16076913,6.15700965 C4.45059612,7.86777081 3.28077232,10.0170168 2.77765056,12.372484 C2.2878425,14.6660254 2.44828517,17.0422757 3.24159446,19.244201 C3.33691029,19.5086153 3.62853944,19.6457002 3.892778,19.5504364 C4.15718617,19.4550877 4.29422388,19.1634431 4.19890805,18.8990289 C3.47004718,16.8759246 3.3226638,14.6926619 3.7727852,12.5850673 C4.23469388,10.4222485 5.30928665,8.44826065 6.88030194,6.87670508 C11.3578566,2.39761052 18.6433276,2.39761052 23.1208823,6.87670508 C25.2531925,9.00983346 26.4468453,11.8452672 26.4818679,14.8608792 C26.5168905,17.8709774 25.3954879,20.7290606 23.3244036,22.908506 C23.2998963,22.9342943 23.2756433,22.9602522 23.2513904,22.9862101 C23.2084813,23.032103 23.165657,23.0780807 23.1208823,23.1228708 C18.6433276,27.6019653 11.3578566,27.6019653 6.88030194,23.1228708 C6.85647298,23.0990336 6.83323762,23.0747723 6.81025667,23.050511 C6.80906946,23.0035153 6.80805185,22.9571983 6.80805185,22.9115599 C6.80805185,22.8090856 6.81000227,22.7070354 6.81373349,22.6053246 C6.8150055,22.5713079 6.81754952,22.5376305 6.81924553,22.5036986 C6.82255275,22.4360893 6.82569037,22.36848 6.8306088,22.30121 C6.83357682,22.2610855 6.83790165,22.2213852 6.84146328,22.1814304 C6.84680571,22.1207772 6.85180895,22.0601239 6.85842339,21.99981 C6.86308742,21.9572255 6.86919306,21.9149803 6.8745355,21.8725654 C6.88174355,21.8153053 6.88861239,21.7578756 6.89709245,21.70087 C6.90353729,21.6574372 6.91116934,21.6144285 6.91829259,21.5712502 C6.92736625,21.5156867 6.93618551,21.4601232 6.94644638,21.4048991 C6.95450243,21.3612118 6.96374569,21.3179486 6.97256495,21.2745158 C6.98350422,21.2203096 6.9942739,21.1660186 7.00631558,21.1121517 C7.01606764,21.0684644 7.02692211,21.0250316 7.03735258,20.9815987 C7.05007267,20.9285802 7.06270795,20.8755616 7.07644564,20.8229671 C7.08789372,20.7793647 7.1002746,20.7361015 7.11231628,20.6927535 C7.12681718,20.6408377 7.14123328,20.5888371 7.15675178,20.5372606 C7.16972627,20.4939974 7.18363356,20.4510736 7.19737125,20.4081498 C7.21365296,20.3571671 7.22993467,20.3060996 7.24714918,20.2555411 C7.26173488,20.2128717 7.27699898,20.1704569 7.29226308,20.128042 C7.3103256,20.0778228 7.32847293,20.0276036 7.34746825,19.9777237 C7.36358036,19.9355633 7.38028607,19.8938271 7.39707658,19.8520061 C7.41683512,19.80272 7.43676325,19.7534339 7.45745459,19.704572 C7.4750931,19.6630054 7.49324042,19.6217782 7.51155735,19.5805509 C7.53301189,19.5321131 7.55472084,19.483845 7.57710818,19.4359162 C7.59618831,19.3951131 7.61569244,19.3545645 7.63545097,19.3141007 C7.65868633,19.2665113 7.68217609,19.2190066 7.70625945,19.1719261 C7.72669638,19.1320561 7.74747252,19.0923558 7.76858786,19.0528252 C7.79351923,19.0059992 7.8188746,18.9593428 7.84473877,18.9129409 C7.86653252,18.8739193 7.88858066,18.8350673 7.91096801,18.7964697 C7.93759539,18.7505768 7.96464677,18.7049384 7.99220695,18.6594697 C8.01535751,18.6212963 8.03876246,18.5832926 8.06250662,18.5454586 C8.09083001,18.5004988 8.1195774,18.4557935 8.1487488,18.4114276 C8.17317136,18.3741873 8.19776353,18.3371167 8.22277969,18.3003006 C8.25271429,18.2561892 8.2833273,18.2125867 8.3141947,18.169069 C8.33988927,18.1328468 8.36558385,18.0967093 8.39187202,18.060996 C8.42350263,18.0179025 8.45581165,17.9752331 8.48829026,17.9328182 C8.51517204,17.8976987 8.54196902,17.8625792 8.56944441,17.8278839 C8.60277103,17.7857235 8.63686086,17.7440721 8.67103548,17.7025904 C8.69893487,17.6686585 8.72683426,17.6347266 8.75532725,17.6012188 C8.79043468,17.5599916 8.82630532,17.5193581 8.86226076,17.4788095 C8.89126255,17.4460653 8.92009474,17.4132362 8.94960534,17.3810009 C8.98640879,17.3407916 9.02397544,17.3013457 9.06162689,17.2618999 C9.09164629,17.2303433 9.12149609,17.1987018 9.15202429,17.1675693 C9.19060855,17.1283779 9.23004081,17.0900349 9.26938828,17.0515222 C9.30025568,17.0214076 9.33086869,16.9909538 9.36224489,16.9612634 C9.40277957,16.9229203 9.44424704,16.8855104 9.48554492,16.8480157 C9.51709073,16.819428 9.54821254,16.7905011 9.58018235,16.7623376 C9.62283703,16.7247581 9.66659413,16.6882813 9.71009682,16.65155 C9.74198183,16.624659 9.77352764,16.5973438 9.80583665,16.5708769 C9.85086575,16.5340608 9.89699726,16.4983475 9.94295917,16.4623797 C9.97501378,16.4373549 10.0065596,16.4117364 10.0389534,16.3871357 C10.0873745,16.3504045 10.1368133,16.3149456 10.1861672,16.2793172 C10.217289,16.2567524 10.2478172,16.2336788 10.279363,16.2115382 C10.333805,16.17328 10.3895189,16.1363791 10.4450633,16.0993085 C10.4724539,16.0810701 10.4992509,16.062153 10.5268111,16.0441691 C10.5992307,15.9970886 10.6729224,15.9515351 10.7471229,15.9065753 C10.8672853,15.8337914 10.9542907,15.7839115 11.0423137,15.7353889 C11.0724179,15.7188471 11.1033701,15.7033233 11.1338135,15.6871208 C11.1922411,15.6559035 11.2504991,15.6244316 11.3099443,15.5945716 C11.3480197,15.5754001 11.387028,15.5574162 11.4254427,15.5388384 C11.4739486,15.5153406 11.5222849,15.4915883 11.5713844,15.4689387 C12.4935906,16.35015 13.7237924,16.8490336 15.0007193,16.8490336 C16.2776462,16.8490336 17.5079328,16.3500651 18.430139,15.4687691 C20.2303702,16.3022212 21.70378,17.7976845 22.5037038,19.6162642 C22.6168277,19.873468 22.9169369,19.9904482 23.1743066,19.8772005 C23.4315068,19.7639528 23.5482771,19.4635707 23.4350684,19.206367 C22.5600961,17.2171098 21.0368236,15.6274855 19.1087131,14.6678916 C19.6681425,13.8469943 19.9707957,12.877645 19.9707957,11.8773328 C19.9707957,9.13589044 17.7412192,6.90554719 15.0007193,6.90554719 C14.719775,6.90554719 14.4919159,7.13348467 14.4919159,7.41452556 C14.4919159,7.69556646 14.719775,7.92350394 15.0007193,7.92350394 C17.1801787,7.92350394 18.9531889,9.69720876 18.9531889,11.8773328 C18.9531889,12.8521961 18.5910057,13.7909219 17.9334621,14.5203727 C17.1823835,15.3534855 16.1135571,15.8311617 15.0006345,15.8311617 C13.8877119,15.8311617 12.8188008,15.3534855 12.0680613,14.5206272 C11.4101786,13.7905825 11.0480801,12.8521112 11.0480801,11.8774176 C11.0480801,10.8133135 11.4645357,9.81503726 12.2207872,9.06666938 C12.4205773,8.86893128 12.4222733,8.54666314 12.2246032,8.34688912 C12.0270179,8.14694545 11.7048605,8.14541852 11.5050704,8.34298696 C10.5542016,9.28374866 10.0304734,10.5389742 10.0304734,11.8770783 C10.0304734,12.8763725 10.3323634,13.8450432 10.8908599,14.6655164 C10.8364179,14.693086 10.7976641,14.7141238 10.7583166,14.7343981 C10.6980234,14.7656155 10.6375606,14.7966631 10.5781154,14.8291529 C10.5360543,14.852057 10.4949261,14.8761486 10.453289,14.8996464 C10.3977446,14.9311183 10.3421154,14.9624204 10.2873343,14.9949102 C10.2448492,15.0201895 10.2030425,15.046317 10.1609814,15.0721901 C10.1084051,15.1045951 10.0558287,15.1369152 10.0040156,15.1702533 C9.96170009,15.1974836 9.92014782,15.2254774 9.87834114,15.2533016 C9.8280544,15.2868093 9.77785247,15.3204867 9.72832894,15.3549276 C9.68669186,15.3839394 9.64556358,15.4135449 9.60443531,15.4431505 C9.55609899,15.4780155 9.50793227,15.5130502 9.46035915,15.5487635 C9.41957008,15.5793871 9.37928981,15.6104347 9.33909434,15.6416521 C9.29245403,15.6778744 9.24615292,15.7143512 9.20036061,15.7514217 C9.16067395,15.7834874 9.12132649,15.8159772 9.08214863,15.8486366 C9.03711953,15.886301 8.99242963,15.9243896 8.94816373,15.9629023 C8.90974908,15.9962403 8.87158882,16.0298329 8.83376777,16.0638496 C8.79009548,16.1031258 8.74701679,16.1428261 8.7041925,16.1828658 C8.66721946,16.2173915 8.63033121,16.252002 8.59386697,16.2872063 C8.55155149,16.3280942 8.50991441,16.369576 8.46836213,16.4112274 C8.43291549,16.446771 8.39746886,16.4822299 8.36270063,16.5182825 C8.32157235,16.5609519 8.28120728,16.6043847 8.24092701,16.6478175 C8.20726119,16.6841246 8.17334096,16.7202621 8.14026874,16.757163 C8.09998847,16.8019531 8.06081061,16.8476763 8.02146315,16.8932299 C7.98983254,16.9298764 7.95794753,16.9661835 7.92691052,17.0032541 C7.88696945,17.0510132 7.84830039,17.0997055 7.80937693,17.1482281 C7.78045994,17.1843655 7.75094934,17.219994 7.72254115,17.2565556 C7.68166728,17.3091501 7.64215022,17.3627625 7.60246355,17.4162052 C7.57753219,17.4497978 7.55192242,17.4827965 7.52749985,17.5167284 C7.47729792,17.5862888 7.42870719,17.6568671 7.38054047,17.7277848 C7.28200222,17.8729285 7.22374423,17.9635266 7.16701265,18.0551427 C7.14742372,18.0867842 7.12902199,18.1191043 7.10985707,18.1509155 C7.07313842,18.2119081 7.03625018,18.2728158 7.00088834,18.3346567 C6.97884019,18.3732542 6.95797925,18.4125304 6.93652471,18.4514672 C6.9055725,18.5074548 6.8744507,18.5632728 6.8447705,18.6199391 C6.82272235,18.6619298 6.80186141,18.7044295 6.78040687,18.7467595 C6.75276188,18.8013899 6.7250321,18.8559354 6.69848952,18.9111595 C6.67737418,18.9551013 6.65727645,18.9995521 6.63683951,19.0437484 C6.61173854,19.0982939 6.58655278,19.1527546 6.56246941,19.2078091 C6.54262608,19.253193 6.52363076,19.299001 6.50455063,19.3447243 C6.48156968,19.3996091 6.45875832,19.4544939 6.43687978,19.5098029 C6.41847805,19.5562896 6.40083954,19.6030308 6.38320102,19.649772 C6.36234008,19.7052506 6.34173354,19.7608141 6.32189021,19.8167169 C6.3050997,19.8641367 6.28881799,19.911811 6.27270588,19.9595702 C6.25379536,20.0156426 6.23539363,20.0718847 6.21758551,20.1284661 C6.20240621,20.1765646 6.18773571,20.2248327 6.17331962,20.2731857 C6.15635951,20.3302761 6.139993,20.3875361 6.12413529,20.4450507 C6.1107368,20.4935733 6.09759271,20.5421807 6.08495743,20.5910427 C6.06994773,20.649151 6.05570123,20.7075139 6.04179394,20.7660464 C6.03017626,20.8149083 6.01864339,20.8636854 6.00787371,20.912717 C5.99481443,20.972013 5.98268795,21.0316483 5.97081587,21.0913684 C5.9610638,21.1402303 5.95114214,21.1890923 5.94215328,21.2382087 C5.9310444,21.2991164 5.92103794,21.3603635 5.91111627,21.4216954 C5.90331462,21.4700483 5.89508896,21.5183164 5.88805052,21.566839 C5.87880725,21.630122 5.8710056,21.6937443 5.86303435,21.7573666 C5.85718311,21.8045319 5.85073827,21.8516124 5.84556543,21.8989474 C5.83827258,21.9656236 5.83267575,22.0327239 5.82682451,22.0998242 C5.82292368,22.1445295 5.81825965,22.1890651 5.81503723,22.2340249 C5.80960999,22.3089295 5.80604837,22.3841735 5.80240194,22.4595023 C5.80062113,22.4969122 5.79782271,22.5340676 5.7964659,22.5715624 C5.79239548,22.6845556 5.79010586,22.7979729 5.79010586,22.9118144 C5.79010586,23.0347327 5.79426109,23.1509494 5.79926432,23.2792968 C5.80045153,23.3089872 5.80460676,23.3378293 5.8105428,23.3659928 C5.81809005,23.4003488 5.82690931,23.4269854 5.83750938,23.4527736 C5.85150147,23.4858572 5.86456076,23.5101185 5.87931606,23.5331922 C5.9000074,23.5644095 5.91688271,23.5857018 5.93528443,23.6055519 C5.93664124,23.606994 6.0060929,23.681729 6.0060929,23.681729 C6.05680364,23.7360201 6.10751438,23.7901414 6.16042993,23.8429903 C8.59759819,26.2809968 11.7989044,27.5 15.0002953,27.5 C18.2016863,27.5 21.4029924,26.2809968 23.8401607,23.8429903 C23.8930762,23.7901414 23.943787,23.7359352 23.9944977,23.681729 L24.0616598,23.6102176 C26.316422,21.2374452 27.537211,18.12623 27.4991355,14.8494272 C27.4612296,11.5660925 26.1617458,8.47913867 23.8404151,6.15700965 Z" id="Shape" fill="#FFFFFF" fill-rule="nonzero"></path>
                    </g>
                </g>
            </g>
        </g>
    </g>
</svg>