<?xml version="1.0" encoding="UTF-8" standalone="no"?>
<svg width="150px" height="150px" viewBox="0 0 150 150" version="1.1" xmlns="http://www.w3.org/2000/svg" xmlns:xlink="http://www.w3.org/1999/xlink">
    <!-- Generator: Sketch 42 (36781) - http://www.bohemiancoding.com/sketch -->
    <title>fire</title>
    <desc>Created with Sketch.</desc>
    <defs>
        <linearGradient x1="50%" y1="0%" x2="50%" y2="98.3438297%" id="linearGradient-1">
            <stop stop-color="#0584FF" offset="0%"></stop>
            <stop stop-color="#021380" offset="100%"></stop>
        </linearGradient>
    </defs>
    <g id="importnat" stroke="none" stroke-width="1" fill="none" fill-rule="evenodd">
        <g id="Web" transform="translate(-951.000000, -2762.000000)">
            <g id="Group-6" transform="translate(339.000000, 2762.000000)">
                <g id="fire" transform="translate(612.000000, 0.000000)">
                    <g id="Group">
                        <circle id="Oval" fill="url(#linearGradient-1)" cx="75" cy="75" r="75"></circle>
                        <circle id="Oval-2" fill="#FFFFFF" cx="75" cy="75" r="70"></circle>
                    </g>
                    <g id="Group-4" transform="translate(17.000000, 1.000000)">
                        <path d="M1.24218131,13.51866 C1.24218131,7.28574078 6.26151593,2.89740512 12.4432301,3.715721 L5.37027518,2.77942547 C11.5564436,3.59833099 18.5946487,8.89679427 21.0883473,14.6088373 L22.9471055,18.8664916 C25.4417886,24.5807899 22.4082736,29.2131439 16.1724457,29.2131439 L12.5338644,29.2131439 C6.29764004,29.2131439 1.24218131,24.1542116 1.24218131,17.9274452 L1.24218131,13.51866 Z" id="Rectangle" fill="#FFFFFF"></path>
                        <path d="M7.46011299,30 C5.42595352,25.8396349 6.50921712,23.4557022 8.07262133,21.2096945 C9.78470316,18.749993 10.2259289,16.3152102 10.2259289,16.3152102 C10.2259289,16.3152102 11.5718105,18.0349425 11.0334121,20.7246505 C13.4111096,18.1230863 13.8598322,13.9781337 13.5007855,12.3907015 C18.87527,16.0823913 21.1722192,24.075915 18.0767143,30 C34.5408445,20.8438443 22.1720447,7.14341696 20.0186799,5.600141 C20.7364873,7.14336071 20.872632,9.7558936 19.4225959,11.0237694 C16.9679844,1.87498242 10.8988697,0 10.8988697,0 C11.6166771,4.7180842 8.29695401,9.87728117 5.09574955,13.7323211 C4.98329707,11.8509824 4.86380558,10.5527878 3.85728436,8.75244922 C3.63134931,12.1700889 0.974094375,14.9559843 0.254512967,18.3802615 C-0.720189637,23.0175144 0.984624277,26.412879 7.46011299,30 Z" id="ild@" fill="#0584FF" fill-rule="nonzero"></path>
                    </g>
                </g>
            </g>
        </g>
    </g>
</svg>