<?xml version="1.0" encoding="UTF-8" standalone="no"?>
<svg width="347px" height="659px" viewBox="0 0 347 659" version="1.1" xmlns="http://www.w3.org/2000/svg" xmlns:xlink="http://www.w3.org/1999/xlink">
    <!-- Generator: Sketch 42 (36781) - http://www.bohemiancoding.com/sketch -->
    <title>Group 8</title>
    <desc>Created with Sketch.</desc>
    <defs>
        <linearGradient x1="50%" y1="1.14981743%" x2="50%" y2="100%" id="linearGradient-1">
            <stop stop-color="#0584FF" offset="0%"></stop>
            <stop stop-color="#021380" offset="100%"></stop>
        </linearGradient>
    </defs>
    <g id="importnat" stroke="none" stroke-width="1" fill="none" fill-rule="evenodd">
        <g id="Web" transform="translate(-366.000000, -3718.000000)">
            <g id="Group-3" transform="translate(19.000000, 3639.000000)">
                <g id="Group-8" transform="translate(347.000000, 79.000000)">
                    <path d="M173,299.47533 L8.81072992e-13,150 L173.607243,2.55795385e-13 L173.607243,172.52467 L346.607243,322 L173.607243,471.47533 L173.607243,659 L8.52651283e-13,509 L173,359.52467 L173,299.47533 Z" id="Combined-Shape" fill="url(#linearGradient-1)"></path>
                    <path d="M173,299.47533 L-2.84217094e-14,150 L173.607243,2.55795385e-13 L173.607243,172.52467 L346.607243,322 L173.607243,471.47533 L173.607243,659 L-5.68434189e-14,509 L173,359.52467 L173,299.47533 Z" id="Combined-Shape" fill="url(#linearGradient-1)"></path>
                    <text id="1" font-family="Raleway-Regular, Raleway" font-size="70" font-weight="normal" fill="#FFFFFF">
                        <tspan x="87.02" y="150">1</tspan>
                    </text>
                    <text id="3" font-family="Raleway-Regular, Raleway" font-size="70" font-weight="normal" fill="#FFFFFF">
                        <tspan x="98.31" y="534">3</tspan>
                    </text>
                    <text id="2" font-family="Raleway-Regular, Raleway" font-size="70" font-weight="normal" fill="#FFFFFF">
                        <tspan x="214.765" y="348">2</tspan>
                    </text>
                </g>
            </g>
        </g>
    </g>
</svg>