<?xml version="1.0" encoding="UTF-8" standalone="no"?>
<svg width="27px" height="30px" viewBox="0 0 27 30" version="1.1" xmlns="http://www.w3.org/2000/svg" xmlns:xlink="http://www.w3.org/1999/xlink">
    <!-- Generator: Sketch 42 (36781) - http://www.bohemiancoding.com/sketch -->
    <title>ild@</title>
    <desc>Created with Sketch.</desc>
    <defs></defs>
    <g id="importnat" stroke="none" stroke-width="1" fill="none" fill-rule="evenodd">
        <g id="Web" transform="translate(-1035.000000, -2673.000000)" fill-rule="nonzero" fill="#0584FF">
            <path d="M1042.46011,2703 C1040.42595,2698.83963 1041.50922,2696.4557 1043.07262,2694.20969 C1044.7847,2691.74999 1045.22593,2689.31521 1045.22593,2689.31521 C1045.22593,2689.31521 1046.57181,2691.03494 1046.03341,2693.72465 C1048.41111,2691.12309 1048.85983,2686.97813 1048.50079,2685.3907 C1053.87527,2689.08239 1056.17222,2697.07592 1053.07671,2703 C1069.54084,2693.84384 1057.17204,2680.14342 1055.01868,2678.60014 C1055.73649,2680.14336 1055.87263,2682.75589 1054.4226,2684.02377 C1051.96798,2674.87498 1045.89887,2673 1045.89887,2673 C1046.61668,2677.71808 1043.29695,2682.87728 1040.09575,2686.73232 C1039.9833,2684.85098 1039.86381,2683.55279 1038.85728,2681.75245 C1038.63135,2685.17009 1035.97409,2687.95598 1035.25451,2691.38026 C1034.27981,2696.01751 1035.98462,2699.41288 1042.46011,2703 Z" id="ild@"></path>
        </g>
    </g>
</svg>