<?xml version="1.0" encoding="UTF-8" standalone="no"?>
<svg width="30px" height="30px" viewBox="0 0 30 30" version="1.1" xmlns="http://www.w3.org/2000/svg" xmlns:xlink="http://www.w3.org/1999/xlink">
    <!-- Generator: Sketch 42 (36781) - http://www.bohemiancoding.com/sketch -->
    <title>karakter</title>
    <desc>Created with Sketch.</desc>
    <defs></defs>
    <g id="importnat" stroke="none" stroke-width="1" fill="none" fill-rule="evenodd">
        <g id="Web" transform="translate(-600.000000, -2673.000000)" fill-rule="nonzero" fill="#0584FF">
            <path d="M616.510877,2680.51211 L613.513402,2680.51211 L613.513402,2686.51334 L607.512111,2686.51334 L607.512111,2689.51082 L613.513345,2689.51082 L613.513345,2695.51205 L616.51082,2695.51205 L616.51082,2689.51088 L622.512054,2689.51088 L622.512054,2686.5134 L616.510877,2686.5134 L616.510877,2680.51211 Z M615,2673 C606.735021,2673 600,2679.73502 600,2688 C600,2696.26378 606.735021,2703 615,2703 L627.000011,2703 C628.649991,2703 630,2701.64999 630,2700.00001 L630,2688 C630.000057,2679.73502 623.263779,2673 615,2673 Z M615.004856,2700.00487 C608.3886,2700.00487 603.004844,2694.62111 603.004844,2688.00486 C603.004844,2681.3886 608.3886,2676.00484 615.004856,2676.00484 C621.621112,2676.00484 627.004867,2681.3886 627.004867,2688.00486 C627.004867,2694.62111 621.621112,2700.00487 615.004856,2700.00487 Z" id="karakter"></path>
        </g>
    </g>
</svg>