<?xml version="1.0" encoding="UTF-8" standalone="no"?>
<svg width="18px" height="18px" viewBox="0 0 18 18" version="1.1" xmlns="http://www.w3.org/2000/svg" xmlns:xlink="http://www.w3.org/1999/xlink">
    <!-- Generator: Sketch 42 (36781) - http://www.bohemiancoding.com/sketch -->
    <title>kryss</title>
    <desc>Created with Sketch.</desc>
    <defs></defs>
    <g id="importnat" stroke="none" stroke-width="1" fill="none" fill-rule="evenodd">
        <g id="Web" transform="translate(-359.000000, -5018.000000)" fill-rule="nonzero" fill="#0584FF">
            <g id="kryss" transform="translate(359.000000, 5018.000000)">
                <g id="Capa_1">
                    <path d="M16.775385,4.47757175 C15.9714123,3.10022323 14.8808747,2.00968565 13.5034852,1.20575399 C12.1258497,0.401863326 10.6219681,0 8.99069248,0 C7.35958087,0 5.85524829,0.401863326 4.47785877,1.20575399 C3.10038724,2.00956264 2.00984966,3.10010023 1.20587699,4.47757175 C0.401863326,5.85512528 0,7.35945786 0,8.99044647 C0,10.6215171 0.401986333,12.1256036 1.20575399,13.5032392 C2.00968565,14.8805877 3.10022323,15.9711253 4.47769476,16.775139 C5.85524829,17.5789886 7.35945786,17.9808929 8.99052847,17.9808929 C10.6215991,17.9808929 12.1259727,17.5789886 13.5034442,16.775139 C14.8808337,15.9714123 15.9713303,14.8805877 16.775221,13.5032392 C17.5789886,12.1257267 17.9808109,10.6214351 17.9808109,8.99044647 C17.9808519,7.35929385 17.5789886,5.85492027 16.775385,4.47757175 Z M13.2281959,11.1091162 C13.3765011,11.2572574 13.4507563,11.4332392 13.4507563,11.6361595 C13.4507563,11.8466241 13.3765011,12.0262551 13.2281959,12.1743964 L12.1747244,13.2281959 C12.0265421,13.3763371 11.8469522,13.4504282 11.6361595,13.4504282 C11.4332802,13.4504282 11.2574624,13.3763371 11.1094032,13.2281959 L8.99056948,11.1091162 L6.87165376,13.2281959 C6.72338952,13.3763371 6.54781777,13.4504282 6.34489749,13.4504282 C6.13414579,13.4504282 5.95467882,13.3763371 5.80637358,13.2281959 L4.75273804,12.1743964 C4.6044738,12.0262551 4.53034169,11.8466241 4.53034169,11.6361595 C4.53034169,11.4332802 4.60451481,11.2572984 4.75273804,11.1091162 L6.87165376,8.99040547 L4.75273804,6.87148975 C4.6044738,6.72338952 4.53034169,6.54765376 4.53034169,6.34473349 C4.53034169,6.13398178 4.60451481,5.95451481 4.75273804,5.80620957 L5.80637358,4.75273804 C5.95467882,4.6044738 6.13414579,4.53034169 6.34489749,4.53034169 C6.54781777,4.53034169 6.72338952,4.60451481 6.87165376,4.75273804 L8.99056948,6.87148975 L11.1094032,4.75273804 C11.2574214,4.6044738 11.4332392,4.53034169 11.6361595,4.53034169 C11.8469522,4.53034169 12.0265421,4.60451481 12.1747244,4.75273804 L13.2281959,5.80620957 C13.3765011,5.95451481 13.4507563,6.13398178 13.4507563,6.34473349 C13.4507563,6.54761276 13.3765011,6.72338952 13.2281959,6.87148975 L11.1094032,8.99040547 L13.2281959,11.1091162 Z" id="Shape"></path>
                </g>
            </g>
        </g>
    </g>
</svg>