<?xml version="1.0" encoding="UTF-8" standalone="no"?>
<svg width="263px" height="386px" viewBox="0 0 263 386" version="1.1" xmlns="http://www.w3.org/2000/svg" xmlns:xlink="http://www.w3.org/1999/xlink">
    <!-- Generator: Sketch 42 (36781) - http://www.bohemiancoding.com/sketch -->
    <title>Logo</title>
    <desc>Created with Sketch.</desc>
    <defs></defs>
    <g id="importnat" stroke="none" stroke-width="1" fill="none" fill-rule="evenodd">
        <g id="Desktop-HD" transform="translate(-589.000000, -319.000000)">
            <g id="Logo" transform="translate(589.000000, 319.000000)">
                <path d="M107.096141,169.006447 L107.096141,245.171486 L107.096141,169.006447 Z" id="Triangle" fill="#FF0D5A"></path>
                <path d="M130.797746,187.491527 L196.635537,149.641125 L196.635537,225.34193 L130.797746,187.491527 Z M196.635537,87.1439494 L262.473329,124.508276 L262.473329,385.545958 L196.635537,348.075581 C196.635537,348.075581 197.461899,301.971762 196.635537,280.060316 L196.635537,244.562444 L196.635537,204.271744 L196.635537,87.1439494 Z" id="Combined-Shape" fill="#FFFFFF"></path>
                <path d="M65.8377915,149.98307 L65.8377915,32.9204162 C65.8377915,14.7393711 51.0994998,0 32.9188957,0 C14.7342942,0 0,14.7389724 0,32.9204162 L0,266.361834 C0,284.542879 14.7382916,299.28225 32.9188957,299.28225 C51.1034973,299.28225 65.8377915,284.543278 65.8377915,266.361834 L65.8377915,225.202208 L131.256673,187.592639 L65.8377915,149.98307 Z" id="Combined-Shape" fill="#FFFFFF"></path>
            </g>
        </g>
    </g>
</svg>