<?xml version="1.0" encoding="UTF-8" standalone="no"?>
<svg width="15px" height="22px" viewBox="0 0 15 22" version="1.1" xmlns="http://www.w3.org/2000/svg" xmlns:xlink="http://www.w3.org/1999/xlink">
    <!-- Generator: Sketch 42 (36781) - http://www.bohemiancoding.com/sketch -->
    <title>pin</title>
    <desc>Created with Sketch.</desc>
    <defs></defs>
    <g id="importnat" stroke="none" stroke-width="1" fill="none" fill-rule="evenodd">
        <g id="Web" transform="translate(-359.000000, -4870.000000)" fill-rule="nonzero" fill="#0584FF">
            <g id="pin" transform="translate(359.000000, 4870.000000)">
                <g id="Capa_1">
                    <path d="M7.49192982,0 C3.36399123,0 0.0173684211,3.34662281 0.0173684211,7.47451754 C0.0173684211,7.79052632 0.0427192982,8.09850877 0.0813596491,8.40381579 C0.72004386,14.2424123 7.00657895,20.9716228 7.00657895,20.9716228 C7.11859649,21.0969737 7.22657895,21.1742982 7.33057018,21.2302632 L7.33592105,21.2329386 L7.54526316,21.2996053 L7.75460526,21.2329386 L7.75995614,21.2302632 C7.86394737,21.1742544 7.97197368,21.0929386 8.08394737,20.9716228 C8.08394737,20.9716228 14.2798246,14.2303947 14.9038158,8.39052632 C14.9411404,8.08921053 14.9664912,7.78385965 14.9664912,7.47320175 C14.9651316,3.34662281 11.6198684,0 7.49192982,0 Z M7.49192982,12.2824561 C4.84131579,12.2824561 2.68403509,10.1251754 2.68403509,7.4745614 C2.68403509,4.82394737 4.84131579,2.66666667 7.49192982,2.66666667 C10.1425439,2.66666667 12.2985088,4.82394737 12.2985088,7.4745614 C12.2985088,10.1251754 10.1425439,12.2824561 7.49192982,12.2824561 Z" id="Shape"></path>
                </g>
            </g>
        </g>
    </g>
</svg>