<?xml version="1.0" encoding="UTF-8" standalone="no"?>
<svg width="150px" height="150px" viewBox="0 0 150 150" version="1.1" xmlns="http://www.w3.org/2000/svg" xmlns:xlink="http://www.w3.org/1999/xlink">
    <!-- Generator: Sketch 42 (36781) - http://www.bohemiancoding.com/sketch -->
    <title>pluss</title>
    <desc>Created with Sketch.</desc>
    <defs>
        <linearGradient x1="50%" y1="0%" x2="50%" y2="98.3438297%" id="linearGradient-1">
            <stop stop-color="#0584FF" offset="0%"></stop>
            <stop stop-color="#021380" offset="100%"></stop>
        </linearGradient>
    </defs>
    <g id="importnat" stroke="none" stroke-width="1" fill="none" fill-rule="evenodd">
        <g id="Web" transform="translate(-746.000000, -2762.000000)">
            <g id="Group-6" transform="translate(339.000000, 2762.000000)">
                <g id="pluss" transform="translate(407.000000, 0.000000)">
                    <g id="Group">
                        <circle id="Oval" fill="url(#linearGradient-1)" cx="75" cy="75" r="75"></circle>
                        <circle id="Oval-2" fill="#FFFFFF" cx="75" cy="75" r="70"></circle>
                    </g>
                    <g id="Group-5" transform="translate(13.000000, 0.000000)">
                        <g id="Group-3">
                            <ellipse id="Oval-6" fill="#FFFFFF" cx="15" cy="15" rx="13" ry="13"></ellipse>
                            <path d="M16.5108769,7.51211078 L13.5134018,7.51211078 L13.5134018,13.5133447 L7.51211078,13.5133447 L7.51211078,16.5108197 L13.5133447,16.5108197 L13.5133447,22.5120537 L16.5108197,22.5120537 L16.5108197,16.5108769 L22.5120537,16.5108769 L22.5120537,13.5134018 L16.5108769,13.5134018 L16.5108769,7.51211078 Z M15,0 C6.73502148,0 0,6.73502148 0,15 C0,23.2637789 6.73502148,30 15,30 L27.0000114,30 C28.6499909,30 30,28.6499909 30,27.0000114 L30,15 C30.0000571,6.73502148 23.2637789,0 15,0 Z M15.0048557,27.0048672 C8.38859987,27.0048672 3.00484431,21.6211116 3.00484431,15.0048557 C3.00484431,8.38859987 8.38859987,3.00484431 15.0048557,3.00484431 C21.6211116,3.00484431 27.0048672,8.38859987 27.0048672,15.0048557 C27.0048672,21.6211116 21.6211116,27.0048672 15.0048557,27.0048672 Z" id="karakter" fill="#0584FF" fill-rule="nonzero"></path>
                        </g>
                    </g>
                </g>
            </g>
        </g>
    </g>
</svg>