<?xml version="1.0" encoding="UTF-8" standalone="no"?>
<svg width="18px" height="21px" viewBox="0 0 18 21" version="1.1" xmlns="http://www.w3.org/2000/svg" xmlns:xlink="http://www.w3.org/1999/xlink">
    <!-- Generator: Sketch 42 (36781) - http://www.bohemiancoding.com/sketch -->
    <title>shield</title>
    <desc>Created with Sketch.</desc>
    <defs></defs>
    <g id="importnat" stroke="none" stroke-width="1" fill="none" fill-rule="evenodd">
        <g id="Web" transform="translate(-827.000000, -5016.000000)" fill-rule="nonzero" fill="#0584FF">
            <g id="shield" transform="translate(827.000000, 5016.000000)">
                <g id="Capa_1">
                    <g>
                        <path d="M17.5202377,2.80660194 C17.4845773,2.54804854 17.3003032,2.33536893 17.0511999,2.26546602 L9.06742993,0.0240291262 C8.95361101,-0.00795145631 8.83338707,-0.00795145631 8.71948159,0.0240291262 L0.735711669,2.26546602 C0.486608353,2.33536893 0.302334219,2.54796117 0.266673841,2.80660194 C0.220367283,3.14274757 -0.836028119,11.0851165 1.87355468,15.0362039 C4.57993497,18.9825728 8.57242581,19.9938932 8.74103361,20.0350485 C8.79114856,20.0472816 8.84221561,20.0533107 8.89345576,20.0533107 C8.94469592,20.0533107 8.99576296,20.0471942 9.04587791,20.0350485 C9.21457227,19.9938932 13.2070631,18.9825728 15.9133568,15.0362039 C18.6229396,11.0852039 17.5665442,3.14283495 17.5202377,2.80660194 Z M14.041966,7.44343689 L8.59622825,12.9410388 C8.46951273,13.0689612 8.30332845,13.1330097 8.13723072,13.1330097 C7.97113299,13.1330097 7.80494871,13.0690485 7.67823319,12.9410388 L4.31118382,9.54192233 C4.18940191,9.41906796 4.121024,9.25234951 4.121024,9.0785534 C4.121024,8.90475728 4.18948846,8.73803883 4.31118382,8.61518447 L4.97972935,7.94027184 C5.23324693,7.68442718 5.64429337,7.68433981 5.8977244,7.94027184 L8.13723072,10.2011068 L12.4554254,5.84169903 C12.5771208,5.71875728 12.7422664,5.64972816 12.914423,5.64972816 C13.0865795,5.64972816 13.2517251,5.71875728 13.3734205,5.84169903 L14.041966,6.51661165 C14.2954836,6.77254369 14.2954836,7.18750485 14.041966,7.44343689 Z" id="Shape"></path>
                    </g>
                </g>
            </g>
        </g>
    </g>
</svg>